<svg width="73" height="73" viewBox="0 0 73 73" fill="none" xmlns="http://www.w3.org/2000/svg">
<circle cx="36.5" cy="36.5" r="36.5" fill="#F6CC5B"/>
<path d="M50.1039 25.7758L39.5755 36.3042C38.8084 37.0713 37.5646 37.0713 36.7975 36.3042C36.0304 35.5371 36.0304 34.2933 36.7975 33.5262L52.0346 18.2891C52.6851 17.4103 52.6121 16.1645 51.8157 15.3681C50.939 14.4914 49.5176 14.4914 48.6409 15.3681L38.2332 25.7758H19.1044C18.4845 25.7758 17.9783 26.2789 18.017 26.8976C18.1406 28.8724 18.5898 30.8159 19.349 32.6487C20.2516 34.8276 21.5745 36.8075 23.2422 38.4752C24.9099 40.1429 26.8897 41.4658 29.0687 42.3684C30.5528 42.9831 32.1095 43.3946 33.6966 43.5946L33.6966 54.9602H26.9617C25.7219 54.9602 24.7168 55.9653 24.7168 57.2052C24.7168 58.445 25.7219 59.4501 26.9617 59.4501H44.9213C46.1612 59.4501 47.1663 58.445 47.1663 57.2052C47.1663 55.9653 46.1612 54.9602 44.9213 54.9602H38.1865L38.1865 43.5946C39.7736 43.3946 41.3303 42.9831 42.8144 42.3684C44.9933 41.4658 46.9732 40.1429 48.6409 38.4752C50.3086 36.8075 51.6315 34.8276 52.534 32.6487C53.2932 30.8159 53.7425 28.8724 53.8661 26.8976C53.9048 26.2789 53.3986 25.7758 52.7787 25.7758H50.1039Z" fill="black"/>
</svg>
