<svg width="73" height="73" viewBox="0 0 73 73" fill="none" xmlns="http://www.w3.org/2000/svg">
<circle cx="36.5" cy="36.5" r="36.5" fill="#BD9501"/>
<path fill-rule="evenodd" clip-rule="evenodd" d="M37.3211 14.728C36.9513 14.4903 36.4769 14.4903 36.1071 14.728L16.357 27.4245C15.4146 28.0303 15.8437 29.4912 16.9639 29.4912H20.9994V30.0522L20.9994 43.5222H17.6328C16.393 43.5222 15.3879 44.5273 15.3879 45.7671C15.3879 47.007 16.393 48.0121 17.6328 48.0121H55.797C57.0369 48.0121 58.042 47.007 58.042 45.7671C58.042 44.5273 57.0369 43.5222 55.797 43.5222H52.4287L52.4287 30.0522V29.4912H56.4643C57.5846 29.4912 58.0136 28.0303 57.0713 27.4245L37.3211 14.728ZM47.9388 29.4912H43.4486V30.0522V43.5222H47.9388V30.0522V29.4912ZM38.9587 29.4912H34.4694V30.0522L34.4694 43.5222H38.9587V30.0522V29.4912ZM29.9795 29.4912H25.4893V30.0522V43.5222H29.9795L29.9795 30.0522V29.4912ZM15.3879 54.3982C15.3879 53.1583 16.393 52.1532 17.6328 52.1532H55.797C57.0369 52.1532 58.042 53.1583 58.042 54.3982C58.042 55.638 57.0369 56.6431 55.797 56.6431H17.6328C16.393 56.6431 15.3879 55.638 15.3879 54.3982Z" fill="black"/>
</svg>
