<svg width="73" height="73" viewBox="0 0 73 73" fill="none" xmlns="http://www.w3.org/2000/svg">
<circle cx="36.5" cy="36.5" r="36.5" fill="#EF6685"/>
<path fill-rule="evenodd" clip-rule="evenodd" d="M27.9608 23.5303H21.2255C18.7458 23.5303 16.7356 25.5405 16.7356 28.0202V32.5099H16.7359C19.2156 32.5099 21.2258 34.5201 21.2258 36.9998C21.2258 39.4795 19.2156 41.4897 16.7359 41.4897H16.7356V45.9798C16.7356 48.4595 18.7458 50.4697 21.2255 50.4697H27.9608V48.2248C27.9608 46.9849 28.9659 45.9798 30.2057 45.9798C31.4456 45.9798 32.4507 46.9849 32.4507 48.2248V50.4697H52.6548C55.1345 50.4697 57.1447 48.4595 57.1447 45.9798V41.4897C54.6652 41.4896 52.6552 39.4794 52.6552 36.9998C52.6552 34.5202 54.6652 32.5101 57.1447 32.5099V28.0202C57.1447 25.5405 55.1345 23.5303 52.6548 23.5303H32.4507V24.6528C32.4507 25.8926 31.4456 26.8977 30.2057 26.8977C28.9659 26.8977 27.9608 25.8926 27.9608 24.6528V23.5303ZM32.4507 32.5101C32.4507 31.2702 31.4456 30.2651 30.2057 30.2651C28.9659 30.2651 27.9608 31.2702 27.9608 32.5101V40.3674C27.9608 41.6073 28.9659 42.6124 30.2057 42.6124C31.4456 42.6124 32.4507 41.6073 32.4507 40.3674V32.5101Z" fill="black"/>
</svg>
