<?xml version="1.0" encoding="utf-8"?>
<!-- Generator: Adobe Illustrator 27.2.0, SVG Export Plug-In . SVG Version: 6.00 Build 0)  -->
<svg version="1.1" id="Layer_1" xmlns="http://www.w3.org/2000/svg" xmlns:xlink="http://www.w3.org/1999/xlink" x="0px" y="0px"
	 viewBox="0 0 1850.6 846.5" style="enable-background:new 0 0 1850.6 846.5;" xml:space="preserve">
<style type="text/css">
	.st0{fill:none;stroke:#F6CC5B;stroke-width:7;stroke-linejoin:round;}
</style>
<path class="st0" d="M1829.2,837.8c6.9-11.2,13.8-22.9,12-45.4c-0.5-5.6-1.3-10.5-2.6-14.7c-1.3-4.3-2.8-7.9-4.6-11.2
	c-0.9-1.6-1.8-3.2-2.7-4.6c-1-1.5-2-2.8-3-4.1c-2.1-2.6-4.2-5.1-6.4-7.5c-4.2-4.8-8.8-9.5-12.5-15.6c-0.9-1.5-1.8-3.1-2.7-4.9
	c-0.9-1.7-1.7-3.5-2.5-5.5c-1.6-3.9-2.8-8.4-3.9-13.6c-1.1-5.2-1.7-9.9-1.8-14.2c-0.2-4.3,0-8.1,0.5-11.8c1.1-7.3,3.1-13.6,5.1-20
	c1-3.2,2.1-6.4,2.8-9.8c0.8-3.3,1.4-6.8,1.7-10.6c0.7-7.6-0.3-16.1-3.7-26.7c-1.8-5.2-3.9-9.6-6-13.3c-2.2-3.7-4.6-6.7-7.1-9.4
	c-2.5-2.6-5-4.8-7.6-6.7c-2.6-1.9-5.3-3.6-8-5.2c-2.7-1.6-5.3-3.3-7.9-5.1c-2.7-1.8-5.3-3.7-7.8-6c-2.6-2.3-4.9-5.1-7.4-8.3
	c-2.5-3.2-4.8-7.1-7.1-11.8c-4.7-9.2-6.6-17-7.6-24.2c-0.4-3.6-0.5-7.1-0.4-10.5c0-1.7,0.1-3.4,0.2-5.1c0.1-1.7,0.1-3.3,0.2-5
	c0.3-6.7,0.5-13.5-0.7-20.9c-0.7-3.7-1.8-7.5-3.5-11.6c-1.7-4-3.8-8.4-6.9-12.8c-3.1-4.4-6.1-8.1-9.2-11c-3-2.9-6.2-5.1-9.2-6.9
	c-6.1-3.5-12-5.3-18-6.8c-6-1.5-11.9-3.1-18-6.1c-3.1-1.5-6.2-3.4-9.4-5.8c-1.6-1.2-3.2-2.7-4.8-4.2c-1.6-1.6-3.4-3.2-5.1-5.2
	c-3.5-3.8-6.1-7.5-8.3-11.2c-2.2-3.5-3.9-7-5.2-10.4c-1.3-3.4-2.3-6.8-3-10.2c-0.8-3.3-1.5-6.6-2.2-10c-2.7-13.3-5.7-26.9-21.9-41.2
	c-4.1-3.5-7.8-6.3-11.5-8.3c-3.7-2-7.2-3.3-10.6-4.2c-3.4-0.9-6.6-1.5-9.8-1.7c-3.2-0.2-6.3-0.2-9.5-0.2c-6.3,0-12.3,0-19.1-1.3
	c-6.8-1.3-13.9-4.4-22.5-10.1c-8.4-5.9-14.1-11.7-18.2-17.8c-4-6.2-6.8-12.2-9.5-18.5c-1.4-3.1-2.8-6.2-4.4-9.3
	c-1.6-3.1-3.5-6.1-5.7-9.1c-2.3-3-4.9-5.9-8.2-8.7c-3.3-2.9-7.2-5.4-11.9-8c-9.4-5.2-17.4-6.8-24.4-7.1c-1.8-0.1-3.5,0-5.1,0.1
	c-1.7,0.1-3.3,0.3-4.9,0.6c-3.2,0.5-6.3,1.2-9.4,1.9c-3.1,0.7-6.1,1.4-9.3,2c-3.2,0.6-6.4,1-9.9,1.1c-3.5,0.1-7.1-0.2-11.1-1
	c-4-0.8-8.3-1.9-13.1-3.9c-7.2-3-12.8-6.2-17.3-9.9c-4.5-3.7-8-7.7-11.2-11.7c-6.3-8.1-11.1-17-19.6-24.2l7,6.7
	c-28.8-28.2-65.4-50.3-106-64.1c-2.5-0.9-5.1-1.7-7.6-2.6c-2.6-0.8-5.2-1.5-7.8-2.2c-5.2-1.4-10.5-2.7-15.8-4
	c-5.3-1.3-10.6-2.4-16-3.6c-1.3-0.3-2.7-0.6-4-0.8l-4.1-0.6l-8.1-1.1c-5.4-0.7-10.9-1.3-16.4-1.9l-8.2-0.8c-2.7-0.2-5.5-0.5-8.2-0.6
	c-11-0.3-22.1-0.4-33.1-0.2c-2.7,0.1-5.5,0.1-8.2,0.2l-8.2,0.7c-5.5,0.5-10.9,1-16.4,1.6c-5.4,0.6-10.9,1.3-16.3,2
	c-5.4,0.8-10.8,2-16.1,3c-5.3,1.1-10.6,2.2-15.9,3.4c-2.6,0.6-5.2,1.2-7.8,1.8l-3.9,1c-1.3,0.3-2.6,0.7-3.9,1.1
	c-10.3,3.1-20.4,6.3-30.3,9.8c-2.5,0.9-4.9,1.8-7.4,2.6c-2.4,0.9-4.9,2-7.3,3c-4.8,2-9.6,4.1-14.2,6.2c-4.7,2.1-9.3,4.3-13.8,6.5
	c-2.3,1.1-4.5,2.2-6.7,3.3c-2.2,1.2-4.4,2.4-6.6,3.6c-17.5,9.8-33.7,19.9-48.3,31.5v0.1c0,0-4,3.8-10.8,9.7
	c-3.4,3-7.5,6.5-12.2,10.3c-4.7,4-9.9,8.4-15.5,12.9c-5.6,4.5-11.7,9.1-18,13.7c-3.2,2.3-6.4,4.6-9.7,7c-3.3,2.4-6.6,4.7-10,6.9
	c-6.8,4.5-13.7,8.7-20.6,12.4c-7,3.9-14,7.5-20.9,10.3c-7,2.8-13.9,4.9-20.7,6.3c-6.8,1.5-13.4,2-19.9,1.5
	c-12.9-1.1-24.9-6.6-35.1-17.9c-10.3-11.4-18.9-29-24.6-54.6c-5.8-25.6-8.7-59.2-7-102.9c0,0,1.3-24.2,6.1-48.7
	c2.4-12.3,5.7-24.6,10.1-34c2.2-4.7,4.6-8.7,7.3-11.5c2.7-2.8,5.7-4.4,8.9-4.6c11.1-0.5,18.1,24.1,17,60.1c-0.3,9-1,18.7-2.3,28.9
	c-1.3,10.2-3.1,21.1-5.5,32.2c-4.7,22.2-11.8,45.5-21.6,68.4c-4.9,11.6-10.4,23-16.7,34.2c-3.2,5.6-6.5,11-10,16.4
	c-3.5,5.4-7.3,10.8-11.2,16.1c-3.9,5.2-8.1,10.4-12.5,15.3c-2.2,2.5-4.4,4.9-6.7,7.3c-2.3,2.4-4.7,4.8-7.1,7.2
	c-9.6,9.5-20.2,18.3-31.9,26.2c-23.4,16.2-51,29.2-83.9,38.2c-32.9,9-71.2,13.9-116.4,14.3c-40.1,0.3-81.7,10.7-122.3,28.5
	c-40.6,17.7-80.2,42.8-116.6,71.7c-18.3,14.4-35.3,29.6-50.6,45.2c-15.3,15.6-28.7,31.6-40,47.5c-11.3,15.9-20.3,31.8-27,46.8
	c-6.7,15-11.1,29.2-13.7,42.1"/>
</svg>
