<?xml version="1.0" encoding="utf-8"?>
<!-- Generator: Adobe Illustrator 27.2.0, SVG Export Plug-In . SVG Version: 6.00 Build 0)  -->
<svg version="1.1" id="Layer_1" xmlns="http://www.w3.org/2000/svg" xmlns:xlink="http://www.w3.org/1999/xlink" x="0px" y="0px"
	 viewBox="0 0 1735 572.7" style="enable-background:new 0 0 1735 572.7;" xml:space="preserve">
<style type="text/css">
	.st0{fill:none;stroke:#F6CC5B;stroke-width:7;stroke-linejoin:round;}
</style>
<path class="st0" d="M1721,235.7c-24.1-3.8-40.2-70.2-64.2-72.8c-24.2-2.6-53.3,58.9-77.4,57.5c-24.3-1.4-46.9-66-71-66.3
	c-24.3-0.3-47.1,63.9-71.2,64.8c-24.3,0.9-53.2-61.2-77.2-59.1c-24.2,2.1-40.4,68.2-64.3,71.5c-24.1,3.3-58.9-55.7-82.7-51.3
	c-23.8,4.5-33.4,71.9-56.8,77.5c-23.6,5.6-104.3,25.9-374.3-165.8C373.4-198,314,401.2,378.1,508.7c54.1,90.7,164.6,52,165.5-46
	c1.1-125.7-284.7-127.9-284.7-127.9l0,0.1c-73.6-3-161.4-16.9-250.7-40.3"/>
</svg>
