<?xml version="1.0" encoding="utf-8"?>
<!-- Generator: Adobe Illustrator 27.2.0, SVG Export Plug-In . SVG Version: 6.00 Build 0)  -->
<svg version="1.1" id="Layer_1" xmlns="http://www.w3.org/2000/svg" xmlns:xlink="http://www.w3.org/1999/xlink" x="0px" y="0px"
	 viewBox="0 0 1695 445" style="enable-background:new 0 0 1695 445;" xml:space="preserve">
<style type="text/css">
	.st0{fill:none;stroke:#F6CC5B;stroke-width:7;stroke-linejoin:round;}
</style>
<path class="st0" d="M22.6,267.2c2.5,6,0.9,34.9,6.3,36.6c5.5,1.7,20.5-28.2,25.9-26.6c5.5,1.6,1.6,34.9,7,36.5
	c5.5,1.6,19.8-28.7,25.3-27.2c5.5,1.5,2.6,34.9,8,36.3c5.5,1.4,19-29.3,24.4-28c5.6,1.3,3.8,34.8,9.3,36c5.6,1.2,17.8-30,23.3-28.9
	c5.6,1.1,5.4,34.6,10.9,35.5c5.7,0.9,16.2-30.8,21.7-30.1c5.7,0.8,7.5,34.2,13,34.8c5.7,0.6,14-31.9,19.6-31.5
	c5.7,0.3,10.2,33.5,15.7,33.6c5.6,0.1,11-33,16.6-33.2c5.8-0.2,13.7,32.3,19.3,31.7c5.7-0.6,6.9-34,12.4-35c5.7-1,18.2,30,23.6,28.6
	c5.6-1.5,1.1-34.6,6.4-36.5c5.4-2,23.5,26.2,28.5,23.7c5.1-2.5-6.1-34-1.3-37.1c4.8-3,28.6,20.3,33.1,16.7
	c4.3-3.6-13.7-31.7-9.7-35.8c12.1-12.5,47.4-0.8,60.1-12.3c12.9-11.7,4.8-48,18.2-58.7c13.6-10.8,47.1,5.5,61.2-4.3
	c14.1-9.7,11.1-47,25.9-55.7c14.9-8.9,45.9,11.7,61.2,4c15.3-7.8,17.3-45,33.1-51.7c15.9-6.8,43.9,17.9,60.1,12.3
	c16.4-5.6,23.2-42.3,39.8-46.8c16.7-4.5,41,23.7,57.9,20.3c16.9-3.4,28.7-38.7,45.8-40.9c17.1-2.2,37.4,29.1,54.6,28
	c17.2-1,33.7-34.4,51-34.3c17.2,0.2,33.1,33.9,50.3,35.2c17.2,1.3,38-29.5,55.1-27c17,2.5,28.1,38.1,45,41.8
	c16.8,3.7,41.7-24.1,58.3-19.2c16.5,4.8,22.7,41.5,38.9,47.5c16.1,5.9,44.5-18.2,60.4-11.1c15.7,7,16.8,44.2,32.2,52.3
	c15.2,8,46.5-12,61.3-2.9c14.6,9,10.8,46.1,24.9,56.2c14,10,47.7-5.8,61.2,5.2c3.8,3.1-13.2,31.8-9.5,34.8
	c3.8,3.1,28.2-19.6,32-16.5c3.8,3-13,31.8-9.3,34.9c3.8,3,28.1-19.8,31.9-16.7c3.8,3-12.9,31.9-9.1,34.9c3.8,3,28-19.9,31.8-16.9
	c3.8,3-12.7,32-8.8,35c3.8,3,27.9-20.1,31.7-17.1c3.8,3-12.5,32.1-8.6,35c3.8,3,27.8-20.3,31.6-17.3c3.8,2.9-12.3,32.1-8.4,35.1
	c3.9,2.9,27.6-20.4,31.5-17.5c3.9,2.9-12.1,32.2-8.2,35.1c3.9,2.9,27.5-20.6,31.4-17.7c3.9,2.9-11.9,32.3-8,35.2
	c3.9,2.9,27.4-20.7,31.3-17.8c3.9,2.9-11.8,32.3-7.9,35.2c3.9,2.9,27.3-20.9,31.2-18c3.9,2.9-11.6,32.4-7.7,35.3
	c3.9,2.9,27.2-21,31.1-18.2c3.9,2.8-11.4,32.5-7.5,35.3c3.9,2.8,22.1-14.2,31.1-18.3"/>
</svg>
