<svg width="73" height="73" viewBox="0 0 73 73" fill="none" xmlns="http://www.w3.org/2000/svg">
<circle cx="36.5" cy="36.5" r="36.5" fill="#64C75B"/>
<path d="M47.1556 28.0802C60.0321 34.2215 52.3375 46.8327 51.7123 47.8152C53.2362 52.6769 51.7681 56.4744 50.8926 58.1252C50.3842 59.0836 49.1952 59.4484 48.2368 58.9401C47.2784 58.4318 46.9135 57.2427 47.4219 56.2843C47.7383 55.6877 48.2019 54.6153 48.3749 53.187C48.9519 50.3547 48.1264 46.4501 45.4573 40.6669C45.0026 39.6819 43.8356 39.2519 42.8506 39.7066C41.8655 40.1612 41.4356 41.3282 41.8902 42.3133C44.5812 48.1437 44.8317 50.9965 44.5083 52.4657C42.6122 52.7451 40.6773 52.8159 38.7755 52.5415C35.3268 52.0398 32.2598 50.3938 29.8991 47.8762C23.8861 41.4615 21.7036 31.4537 21.2518 22.9948C21.1214 20.565 21.43 18.4204 22.6803 16.2602C23.6157 14.6456 24.9487 13.5232 25.6836 15.9843C26.7212 19.4499 30.1355 20.8435 36.5126 23.4465C39.4241 24.6349 42.9532 26.0754 47.1556 28.0802Z" fill="black"/>
</svg>
