<svg width="73" height="73" viewBox="0 0 73 73" fill="none" xmlns="http://www.w3.org/2000/svg">
<circle cx="36.5" cy="36.5" r="36.5" fill="#AEB3EC"/>
<path d="M27.9603 41.4296H45.9199V47.0419C45.9199 47.6619 45.4174 48.1644 44.7974 48.1644H29.0828C28.4628 48.1644 27.9603 47.6619 27.9603 47.0419V41.4296Z" fill="black"/>
<path fill-rule="evenodd" clip-rule="evenodd" d="M38.6596 15.2197C38.133 14.2712 36.9372 13.9292 35.9887 14.4558C35.0402 14.9824 34.6982 16.1782 35.2249 17.1267C36.7001 19.7837 37.0159 21.3505 36.9773 22.3326C36.9408 23.2607 36.5878 23.9267 35.9512 24.9011C35.894 24.9885 35.8336 25.0797 35.7706 25.1746C35.3014 25.8818 34.6929 26.799 34.2888 27.9592L20.1019 27.9592C19.482 27.9592 18.9758 28.4622 19.0145 29.0809C19.1381 31.0557 19.5873 32.9992 20.3465 34.832C21.2491 37.011 22.572 38.9909 24.2397 40.6586C25.9074 42.3263 27.8872 43.6492 30.0662 44.5517C32.2451 45.4543 34.5805 45.9188 36.939 45.9188C39.2975 45.9188 41.6329 45.4543 43.8119 44.5517C45.9908 43.6492 47.9707 42.3263 49.6384 40.6586C51.3061 38.9909 52.629 37.011 53.5315 34.832C54.2907 32.9992 54.74 31.0558 54.8636 29.0809C54.9023 28.4622 54.3961 27.9592 53.7762 27.9592H46.5192C46.6521 27.7467 46.7997 27.5216 46.9618 27.2743L47.1087 27.0499C47.8124 25.9728 48.6907 24.5438 48.7715 22.4868C48.8502 20.4837 48.1691 18.175 46.5282 15.2197C46.0016 14.2712 44.8058 13.9292 43.8573 14.4558C42.9088 14.9824 42.5669 16.1782 43.0935 17.1267C44.5687 19.7837 44.8845 21.3505 44.8459 22.3326C44.8094 23.2607 44.4564 23.9267 43.8198 24.9011C43.7627 24.9885 43.7022 25.0797 43.6392 25.1746C43.17 25.8818 42.5615 26.799 42.1574 27.9592H38.6506C38.7835 27.7467 38.9311 27.5216 39.0931 27.2743L39.2401 27.0499C39.9438 25.9728 40.8221 24.5438 40.9029 22.4868C40.9816 20.4837 40.3005 18.175 38.6596 15.2197ZM42.1574 27.9592C42.0402 28.2959 41.9401 28.6531 41.8657 29.0316C41.489 30.9466 41.7847 33.1669 43.004 36.0259C43.4296 37.0238 44.5835 37.4877 45.5814 37.0622C46.5793 36.6366 47.0433 35.4826 46.6177 34.4847C45.592 32.0796 45.5443 30.6857 45.7205 29.7897C45.8516 29.1231 46.1192 28.5985 46.5192 27.9592H42.1574ZM38.6506 27.9592C38.2506 28.5985 37.983 29.1231 37.8519 29.7897C37.6757 30.6857 37.7234 32.0796 38.7491 34.4847C39.1747 35.4826 38.7107 36.6366 37.7128 37.0622C36.7149 37.4877 35.5609 37.0238 35.1354 36.0259C33.9161 33.1669 33.6204 30.9466 33.9971 29.0316C34.0715 28.6531 34.1716 28.2959 34.2888 27.9592H36.939H38.6506Z" fill="black"/>
<path d="M23.4697 54.8993L54.899 54.8993" stroke="black" stroke-width="4.4899" stroke-linecap="round"/>
<ellipse cx="22.3472" cy="54.8991" rx="5.61238" ry="4.4899" fill="black"/>
</svg>
